<svg xmlns="http://www.w3.org/2000/svg" xmlns:xlink="http://www.w3.org/1999/xlink" fill="orange" version="1.1" id="Capa_1" x="0px" y="0px" width="20" height="20" viewBox="0 0 798.466 798.466" style="enable-background:new 0 0 798.466 798.466;" xml:space="preserve">
<g>
	<path d="M399.231,332.957c49.021,0,88.896-39.875,88.896-88.896c0-49.015-39.873-88.89-88.896-88.89   c-49.018,0-88.893,39.875-88.893,88.89C310.34,293.083,350.214,332.957,399.231,332.957z M399.231,212.33   c17.5,0,31.736,14.231,31.736,31.73c0,17.5-14.236,31.735-31.736,31.735c-17.498,0-31.733-14.234-31.733-31.735   C367.498,226.562,381.734,212.33,399.231,212.33z"/>
	<path d="M399.231,439.384c107.705,0,195.324-87.617,195.324-195.324h-57.161c0,76.187-61.977,138.166-138.164,138.166   c-76.184,0-138.163-61.979-138.163-138.165h-57.159C203.911,351.769,291.53,439.384,399.231,439.384z"/>
	<path d="M399.231,548.964c168.123,0,304.899-136.779,304.899-304.901h-57.158c0,136.604-111.14,247.743-247.741,247.743   c-136.601,0-247.738-111.141-247.738-247.744h-57.16C94.334,412.181,231.113,548.964,399.231,548.964z"/>
	<path d="M399.231,643.294c220.139,0,399.234-179.098,399.234-399.231h-57.158c0,188.625-153.452,342.075-342.076,342.075   c-188.625,0-342.075-153.449-342.075-342.075H0C0,464.197,179.099,643.294,399.231,643.294z"/>
</g>
<g>
</g>
<g>
</g>
<g>
</g>
<g>
</g>
<g>
</g>
<g>
</g>
<g>
</g>
<g>
</g>
<g>
</g>
<g>
</g>
<g>
</g>
<g>
</g>
<g>
</g>
<g>
</g>
<g>
</g>
</svg>